<svg width="300" height="164" viewBox="0 0 300 164" fill="none" xmlns="http://www.w3.org/2000/svg">
<g clip-path="url(#clip0_336_563)">
<path d="M204.398 120.129H187.957H180.734H164.293V127.134H180.734V163.372H187.957V127.134H204.398V120.129Z" fill="black"/>
<path d="M251.93 120.129H235.503H228.28H211.839V127.134H228.28V163.372H235.503V127.134H251.93V120.129Z" fill="black"/>
<path d="M30.8868 142.225C33.4681 142.225 35.9439 141.198 37.7705 139.37C39.5971 137.542 40.6252 135.063 40.6291 132.476V120.143H33.1732V129.017C33.1751 130.299 32.9244 131.57 32.4355 132.755C31.9466 133.941 31.229 135.018 30.324 135.925C29.419 136.832 28.3442 137.551 27.1614 138.041C25.9785 138.531 24.7108 138.782 23.4309 138.78H7.41227V120.143H0V163.402H7.45595V145.669H23.4746C24.7533 145.667 26.0198 145.918 27.2017 146.407C28.3836 146.896 29.4577 147.614 30.3625 148.519C31.2674 149.425 31.9852 150.5 32.475 151.684C32.9647 152.868 33.2168 154.137 33.2168 155.418V163.372H40.6728V152.018C40.6747 150.73 40.4228 149.454 39.9315 148.265C39.4402 147.075 38.7192 145.994 37.81 145.084C36.9007 144.174 35.821 143.453 34.6329 142.962C33.4449 142.472 32.1718 142.221 30.8868 142.225Z" fill="black"/>
<path d="M89.7335 132.476V131.177C89.7335 129.726 89.4483 128.291 88.8941 126.951C88.3399 125.611 87.5277 124.394 86.5039 123.37C85.48 122.345 84.2647 121.532 82.9273 120.979C81.5899 120.425 80.1567 120.141 78.7098 120.143H51.1577V163.402H58.6137V145.684H72.5353C75.1166 145.684 77.5924 146.71 79.419 148.538C81.2456 150.366 82.2737 152.846 82.2776 155.433V163.387H89.7335V152.018C89.7297 149.429 88.702 146.948 86.8758 145.118C85.0496 143.288 82.5739 142.258 79.9913 142.254C81.2719 142.254 82.5399 142.001 83.7228 141.509C84.9058 141.018 85.9804 140.297 86.8852 139.389C87.7901 138.481 88.5074 137.403 88.9961 136.216C89.4848 135.03 89.7354 133.759 89.7335 132.476ZM76.4089 138.78H58.6137V127.032H76.4089C77.9634 127.032 79.4543 127.651 80.5535 128.752C81.6528 129.854 82.2703 131.348 82.2703 132.906C82.2703 134.464 81.6528 135.958 80.5535 137.06C79.4543 138.162 77.9634 138.78 76.4089 138.78Z" fill="black"/>
<path d="M107.704 120.129H100.262V163.387H107.704V120.129Z" fill="black"/>
<path d="M284.258 120.143H275.142C273.07 120.141 271.018 120.549 269.103 121.344C267.189 122.139 265.45 123.304 263.986 124.774C262.522 126.244 261.362 127.989 260.573 129.909C259.783 131.829 259.38 133.887 259.386 135.964V163.431H266.842V145.333H292.559V163.431H300.015V135.964C300.02 133.887 299.617 131.829 298.828 129.909C298.038 127.989 296.878 126.244 295.414 124.774C293.95 123.304 292.211 122.139 290.297 121.344C288.382 120.549 286.33 120.141 284.258 120.143ZM292.5 138.883H266.783V136.664C266.787 134.076 267.815 131.595 269.641 129.764C271.467 127.934 273.943 126.904 276.525 126.9H282.773C285.354 126.904 287.828 127.935 289.652 129.765C291.476 131.596 292.5 134.077 292.5 136.664V138.883Z" fill="black"/>
<path d="M137.542 164.015C131.455 164.015 126.746 162.837 123.416 160.483C121.827 159.42 120.522 157.981 119.618 156.294C118.714 154.606 118.238 152.722 118.232 150.806H126.067C126.185 151.72 126.489 152.599 126.96 153.39C127.431 154.181 128.058 154.866 128.804 155.404C130.503 156.853 133.416 157.573 137.542 157.564C140.516 157.747 143.478 157.052 146.061 155.564C146.927 155.064 147.649 154.348 148.159 153.487C148.669 152.626 148.95 151.647 148.973 150.646C148.995 149.841 148.807 149.044 148.426 148.335C148.045 147.625 147.486 147.028 146.804 146.603C144.637 145.416 142.223 144.756 139.755 144.677L134.717 144.21C130.869 143.977 127.149 142.739 123.926 140.619C122.585 139.707 121.499 138.467 120.771 137.016C120.042 135.565 119.694 133.952 119.761 132.33C119.695 129.845 120.493 127.415 122.018 125.456C123.668 123.451 125.834 121.937 128.28 121.077C131.234 120.006 134.358 119.487 137.498 119.545C141.946 119.345 146.356 120.44 150.197 122.697C151.772 123.686 153.065 125.069 153.948 126.708C154.831 128.348 155.275 130.189 155.235 132.052H147.415C147.362 131.184 147.102 130.34 146.656 129.594C146.21 128.847 145.591 128.218 144.852 127.761C142.57 126.586 140.042 125.973 137.476 125.973C134.911 125.973 132.382 126.586 130.101 127.761C129.334 128.248 128.701 128.92 128.261 129.716C127.82 130.511 127.587 131.405 127.581 132.315C127.559 133.042 127.71 133.765 128.021 134.422C128.333 135.079 128.796 135.653 129.372 136.095C131.114 137.216 133.128 137.842 135.197 137.905L140.236 138.372C144.482 138.607 148.604 139.89 152.235 142.108C153.669 143.007 154.842 144.267 155.637 145.763C156.431 147.259 156.82 148.938 156.764 150.631C156.794 153.176 155.91 155.647 154.274 157.593C152.454 159.736 150.104 161.361 147.459 162.307C144.285 163.479 140.924 164.058 137.542 164.015Z" fill="black"/>
<path d="M101.209 1.91592e-05C101.132 1.91592e-05 101.057 0.0307718 101.003 0.0855124C100.948 0.140253 100.917 0.214504 100.917 0.291919V49.1986C100.913 57.7985 103.158 66.2493 107.431 73.7074C111.703 81.1656 117.853 87.3703 125.265 91.7023C132.678 96.0343 141.095 98.3419 149.676 98.395C158.256 98.448 166.701 96.2446 174.166 92.0047C175.085 91.5351 175.97 91.0036 176.817 90.4138L177.123 90.1803C183.881 85.7031 189.426 79.6158 193.261 72.4637C197.096 65.3116 199.101 57.318 199.097 49.1986V0.233539C199.097 0.156124 199.067 0.0818841 199.012 0.0271436C198.957 -0.0275969 198.883 -0.0583496 198.806 -0.0583496L101.209 1.91592e-05ZM144.284 37.0412C146.077 36.435 147.982 36.2325 149.862 36.4481C151.742 36.6636 153.552 37.292 155.162 38.2884C156.772 39.2848 158.143 40.6248 159.178 42.2129C160.213 43.801 160.885 45.5981 161.148 47.4764C157.176 47.874 153.371 49.2793 150.092 51.5597C146.813 53.84 144.168 56.9202 142.406 60.5094C140.213 59.3257 138.411 57.5276 137.22 55.3348C136.029 53.142 135.502 50.6492 135.701 48.1607C135.9 45.6722 136.818 43.2957 138.342 41.3211C139.866 39.3466 141.931 37.8594 144.284 37.0412ZM163.448 54.6424H163.638C165.833 54.6472 167.966 55.3736 169.71 56.7102C171.454 58.0468 172.713 59.9197 173.293 62.0419H149.891C151.361 59.7786 153.37 57.9174 155.737 56.6258C158.104 55.3341 160.754 54.6525 163.448 54.6424ZM167.817 43.9299C166.644 39.672 164.116 35.9143 160.618 33.2274C157.12 30.5406 152.842 29.0715 148.435 29.0434H119.019C116.144 29.0434 113.386 27.8998 111.352 25.8639C109.318 23.828 108.173 21.0661 108.17 18.185V7.31194H151.245C163.274 7.31194 173.657 17.1633 173.598 29.2039C173.613 34.6659 171.557 39.9296 167.846 43.9299H167.817ZM128.499 46.8488C128.407 47.6239 128.359 48.4035 128.353 49.184C128.351 53.0679 129.471 56.8693 131.577 60.1297C133.683 63.3901 136.685 65.9701 140.221 67.5586C140.053 68.6844 139.966 69.8209 139.959 70.9592C139.951 74.9904 140.974 78.9564 142.932 82.4776C144.891 85.9989 147.718 88.9576 151.143 91.0706H151.041C145.848 91.2662 140.707 89.9715 136.222 87.3387C131.738 84.7059 128.097 80.8445 125.728 76.2087C123.358 71.5728 122.359 66.3553 122.847 61.1697C123.336 55.9841 125.291 51.0461 128.484 46.9364L128.499 46.8488ZM147.342 69.2954C147.706 69.2954 148.085 69.2954 148.464 69.2954H180.923V64.5959C180.916 61.5834 180.123 58.625 178.623 56.014C177.124 53.4029 174.97 51.2296 172.375 49.7094C177.841 44.2485 180.921 36.8367 180.938 29.1017C180.944 24.9759 180.069 20.8966 178.371 17.1381C176.673 13.3796 174.192 10.0291 171.094 7.31194H191.845V49.1986C191.84 56.6148 189.875 63.8974 186.151 70.3061C182.427 76.7147 177.076 82.0208 170.642 85.6852C168.42 86.8049 165.965 87.3848 163.478 87.3782C159.166 87.3588 155.038 85.6277 151.997 82.5639C148.956 79.5001 147.251 75.3534 147.255 71.0321C147.244 70.4571 147.268 69.882 147.328 69.31L147.342 69.2954ZM128.804 36.3407L108.301 51.6651C108.301 50.7894 108.213 49.9721 108.213 49.1986V32.7212C111.343 35.076 115.149 36.3511 119.062 36.3553L128.804 36.3407ZM116.674 54.4964C114.772 61.3806 115.042 68.6859 117.446 75.4105C113.761 70.8156 111.081 65.4949 109.582 59.7943L116.674 54.4964Z" fill="black"/>
</g>
<defs>
<clipPath id="clip0_336_563">
<rect width="300" height="164" fill="white"/>
</clipPath>
</defs>
</svg>
